<svg width="13" height="16" viewBox="0 0 13 16" fill="none" xmlns="http://www.w3.org/2000/svg">
<mask id="mask0" mask-type="alpha" maskUnits="userSpaceOnUse" x="0" y="0" width="13" height="16">
<path fill-rule="evenodd" clip-rule="evenodd" d="M0 0.0372314H12.9043V15.9256H0V0.0372314Z" fill="white"/>
</mask>
<g mask="url(#mask0)">
<path fill-rule="evenodd" clip-rule="evenodd" d="M1.42148 2.71635H11.4828C11.8527 2.71635 12.1526 3.01622 12.1526 3.38612C12.1526 3.75602 11.8527 4.05588 11.4828 4.05588H1.42148C1.05159 4.05588 0.751717 3.75602 0.751717 3.38612C0.751717 3.01622 1.05159 2.71635 1.42148 2.71635ZM4.07075 1.50705C4.06829 1.3133 4.14446 1.12681 4.28195 0.990025C4.41929 0.85328 4.60623 0.778118 4.80013 0.781466H8.1042C8.2981 0.778118 8.48504 0.85328 8.62238 0.990025C8.75987 1.12666 8.83603 1.3133 8.83358 1.50705V1.97216H4.07075V1.50705ZM9.97222 15.1815H2.93211C2.2959 15.1815 1.80098 14.6349 1.80098 13.935V4.80007H11.1033V13.935C11.1033 14.6349 10.6084 15.1815 9.97222 15.1815ZM1.0568 4.76736V13.935C1.0568 14.4768 1.25549 14.9857 1.60258 15.3508C1.94807 15.7169 2.42889 15.9248 2.93211 15.9257H9.97222C10.4756 15.9248 10.9564 15.7169 11.3017 15.3508C11.6488 14.9857 11.8475 14.4768 11.8475 13.935V4.76736C12.5375 4.58422 12.9846 3.91765 12.8923 3.20967C12.7998 2.5018 12.1968 1.97231 11.4828 1.97216H9.57776V1.50705C9.57992 1.1159 9.42528 0.74035 9.14841 0.464034C8.87149 0.187866 8.49535 0.0340804 8.1042 0.0372804H4.80013C4.40898 0.0340804 4.03283 0.187866 3.75592 0.464034C3.47905 0.74035 3.32441 1.1159 3.32656 1.50705V1.97216H1.42148C0.70755 1.97231 0.104462 2.5018 0.0120337 3.20967C-0.0802453 3.91765 0.366824 4.58422 1.0568 4.76736Z" fill="#386CAE"/>
</g>
<path fill-rule="evenodd" clip-rule="evenodd" d="M8.64748 5.79364C8.44198 5.79364 8.27539 5.96023 8.27539 6.16573V13.1983C8.27539 13.4037 8.44198 13.5704 8.64748 13.5704C8.85299 13.5704 9.01958 13.4037 9.01958 13.1983V6.16573C9.01958 5.96023 8.85299 5.79364 8.64748 5.79364Z" fill="#386CAE"/>
<path fill-rule="evenodd" clip-rule="evenodd" d="M4.25686 5.79364C4.05135 5.79364 3.88477 5.96023 3.88477 6.16573V13.1983C3.88477 13.4037 4.05135 13.5704 4.25686 13.5704C4.46237 13.5704 4.62895 13.4037 4.62895 13.1983V6.16573C4.62895 5.96023 4.46237 5.79364 4.25686 5.79364Z" fill="#386CAE"/>
<path fill-rule="evenodd" clip-rule="evenodd" d="M6.45217 5.79364C6.24666 5.79364 6.08008 5.96023 6.08008 6.16573V13.1983C6.08008 13.4037 6.24666 13.5704 6.45217 13.5704C6.65772 13.5704 6.82426 13.4037 6.82426 13.1983V6.16573C6.82426 5.96023 6.65772 5.79364 6.45217 5.79364Z" fill="#386CAE"/>
</svg>
