<svg width="20" height="21" viewBox="0 0 20 21" fill="none" xmlns="http://www.w3.org/2000/svg">
<path d="M2.30457 8.76223C2.30457 5.73271 4.76048 3.27679 7.79 3.27679H12.3747C15.4042 3.27679 17.8601 5.73271 17.8601 8.76223V8.76223C17.8601 11.7917 15.4042 14.2477 12.3747 14.2477H10.8154L7.79 17.1531V14.2477V14.2477C4.76048 14.2477 2.30457 11.7917 2.30457 8.76223V8.76223Z" stroke="#5E6784" stroke-width="1.3" stroke-linecap="round" stroke-linejoin="round"/>
<path d="M6.81505 9.4195C7.26721 9.4195 7.63376 9.05295 7.63376 8.60079C7.63376 8.14862 7.26721 7.78207 6.81505 7.78207C6.36289 7.78207 5.99634 8.14862 5.99634 8.60079C5.99634 9.05295 6.36289 9.4195 6.81505 9.4195Z" fill="#5E6784"/>
<path d="M10.09 9.4195C10.5421 9.4195 10.9087 9.05295 10.9087 8.60079C10.9087 8.14862 10.5421 7.78207 10.09 7.78207C9.63779 7.78207 9.27124 8.14862 9.27124 8.60079C9.27124 9.05295 9.63779 9.4195 10.09 9.4195Z" fill="#5E6784"/>
<path d="M13.3649 9.4195C13.817 9.4195 14.1836 9.05295 14.1836 8.60079C14.1836 8.14862 13.817 7.78207 13.3649 7.78207C12.9127 7.78207 12.5461 8.14862 12.5461 8.60079C12.5461 9.05295 12.9127 9.4195 13.3649 9.4195Z" fill="#5E6784"/>
</svg>
