<svg xmlns="http://www.w3.org/2000/svg" width="56" height="31" viewBox="0 0 56 31"><g><g><path fill="#fff" d="M33.056 14.106v4.215c1.321.674 4.551 2.44 7.566 4.9A3.731 3.731 0 0 1 42 26.134v3.754A1.11 1.11 0 0 1 40.882 31H14.118A1.11 1.11 0 0 1 13 29.887v-3.754c0-1.135.497-2.192 1.378-2.911 3.015-2.473 6.245-4.227 7.566-4.901v-4.215a3.579 3.579 0 0 1-1.107-2.585V6.047C20.837 2.709 23.56 0 26.912 0h1.186c3.354 0 6.076 2.709 6.076 6.047v5.474c0 .989-.406 1.922-1.118 2.585zm-1.446 5.968a1.357 1.357 0 0 1-.767-1.214v-5.282c0-.371.18-.72.497-.922.383-.247.61-.674.61-1.124V6.058c0-2.102-1.717-3.821-3.84-3.821h-1.186c-2.112 0-3.84 1.708-3.84 3.821v5.474c0 .45.226.865.61 1.124.305.203.497.551.497.922v5.282c0 .506-.305.99-.768 1.214-.689.338-4.29 2.147-7.611 4.868-.362.292-.565.73-.565 1.19v2.642h24.528v-2.641c0-.461-.203-.899-.565-1.191-3.32-2.71-6.922-4.53-7.6-4.868zM0 29.908v-2.835a3.08 3.08 0 0 1 1.173-2.404c2.266-1.808 4.68-3.11 5.796-3.673v-2.945a2.92 2.92 0 0 1-.866-2.062v-4.158C6.103 9.173 8.335 7 11.09 7h.921C14.757 7 17 9.162 17 11.831v4.158c0 .783-.32 1.51-.866 2.062v1.5c0 .607-.5 1.092-1.127 1.092-.626 0-1.127-.485-1.127-1.091v-2.008c0-.364.182-.705.5-.904a.767.767 0 0 0 .366-.65V11.83c0-1.456-1.23-2.647-2.734-2.647h-.921c-1.504 0-2.734 1.191-2.734 2.647v4.158c0 .265.137.507.365.65.308.2.501.54.501.905v4.003c0 .486-.285.938-.74 1.148-.535.242-3.325 1.61-5.887 3.65a.928.928 0 0 0-.342.717v1.754h8.04c.625 0 1.126.485 1.126 1.092 0 .607-.5 1.092-1.127 1.092H1.128C.5 31 0 30.515 0 29.908zM43.987 7h.922c2.745 0 4.988 2.16 4.988 4.829v4.156c0 .782-.319 1.51-.866 2.061v2.944c1.105.562 3.53 1.874 5.796 3.671A3.043 3.043 0 0 1 56 27.064v2.844c0 .607-.502 1.092-1.128 1.092h-9.029c-.626 0-1.127-.485-1.127-1.092 0-.606.5-1.09 1.127-1.09h7.902v-1.754a.911.911 0 0 0-.341-.717c-2.573-2.04-5.352-3.395-5.887-3.649-.444-.209-.74-.66-.74-1.146V17.55c0-.364.182-.705.501-.904a.767.767 0 0 0 .364-.65V11.84c0-1.456-1.23-2.646-2.733-2.646h-.922c-1.503 0-2.733 1.19-2.733 2.646v4.156c0 .264.137.507.365.65.307.199.5.54.5.904v1.919c0 .606-.5 1.09-1.126 1.09-.627 0-1.128-.484-1.128-1.09v-1.412a2.918 2.918 0 0 1-.865-2.06V11.84c0-2.668 2.243-4.83 4.987-4.84z"/></g></g></svg>