<svg width="16" height="16" viewBox="0 0 16 16" fill="none" xmlns="http://www.w3.org/2000/svg">
<mask id="mask0" mask-type="alpha" maskUnits="userSpaceOnUse" x="0" y="1" width="15" height="15">
<path fill-rule="evenodd" clip-rule="evenodd" d="M0 1.53516H14.9643V16H0V1.53516Z" fill="white"/>
</mask>
<g mask="url(#mask0)">
<path fill-rule="evenodd" clip-rule="evenodd" d="M14.5711 10.0313C14.3539 10.0313 14.178 10.2109 14.178 10.4325V13.9941C14.1772 14.6585 13.6496 15.1969 12.9984 15.1975H1.96594C1.31472 15.1969 0.787126 14.6585 0.786378 13.9941V3.54086C0.787126 2.87663 1.31472 2.33824 1.96594 2.33744H5.45701C5.67417 2.33744 5.8502 2.15789 5.8502 1.9363C5.8502 1.7149 5.67417 1.53516 5.45701 1.53516H1.96594C0.880669 1.5364 0.00122047 2.43363 0 3.54086V13.9943C0.00122047 15.1015 0.880669 15.9987 1.96594 16H12.9984C14.0836 15.9987 14.9631 15.1015 14.9643 13.9943V10.4325C14.9643 10.2109 14.7883 10.0313 14.5711 10.0313Z" fill="#386CAE"/>
</g>
<path fill-rule="evenodd" clip-rule="evenodd" d="M14.9297 2.91715L14.5139 3.33288L12.6676 1.48677L13.0836 1.07101C13.4663 0.688336 14.0868 0.688336 14.4695 1.07101L14.9297 1.53104C15.3118 1.91414 15.3118 2.53417 14.9297 2.91715ZM6.02016 8.50514L7.49507 9.98008L5.45492 10.5453L6.02016 8.50514ZM6.38893 7.76523L12.1133 2.04124L13.9594 3.88723L8.23492 9.61123L6.38893 7.76523ZM15.024 0.516687C14.3351 -0.172229 13.218 -0.172229 12.5291 0.516687L5.53469 7.51041C5.48676 7.55834 5.45217 7.61776 5.43408 7.683L4.51432 11.0033C4.47647 11.1394 4.51491 11.2852 4.61477 11.3852C4.71479 11.485 4.86059 11.5234 4.99673 11.4858L8.31732 10.566C8.38257 10.5479 8.44196 10.5133 8.48989 10.4653L15.4841 3.47147C16.172 2.78209 16.172 1.66607 15.4841 0.976683L15.024 0.516687Z" fill="#386CAE"/>
</svg>
