<svg xmlns="http://www.w3.org/2000/svg" width="179" height="56" viewBox="0 0 179 56"><g><g><path fill="none" stroke="#fff" stroke-linecap="round" stroke-linejoin="round" stroke-miterlimit="50" stroke-width="2" d="M1 28.538c12.112 4.48 9.356 24.702 17.648 26.438 8.292 1.735 10.426-18.757 17.647-20.332 7.222-1.574 11.069 9.9 17.648 7.113 6.58-2.787 10.428-22.398 17.648-23.447 7.22-1.049 8.117 12.167 17.648 10.228C98.769 26.598 96.822 1 106.886 1c10.064 0 9.024 38.968 17.648 40.757 8.624 1.789 10.103-21.33 17.648-23.447 7.544-2.116 10.962 10.597 18.841 9.505 7.88-1.093 6.13-14.192 16.454-16.98"/></g></g></svg>